<?xml version="1.0"?>
<!-- Generated by SVGo and Plotinum VG -->
<svg width="15in" height="15in"
	xmlns="http://www.w3.org/2000/svg"
	xmlns:xlink="http://www.w3.org/1999/xlink">
<g transform="scale(1, -1) translate(0, -1350)">
<path d="M0,0L1350,0L1350,1350L0,1350Z" style="fill:#FFFFFF" />
<text x="594.8" y="-1335.6" transform="scale(1, -1)"
	style="font-family:Times;font-weight:normal;font-style:normal;font-size:12pt">Fuzzy Logic BLT Forecast</text>
<text x="712.93" y="-4.8267" transform="scale(1, -1)"
	style="font-family:Times;font-weight:normal;font-style:normal;font-size:12pt">Income</text>
<text x="198.51" y="-19.502" transform="scale(1, -1)"
	style="font-family:Times;font-weight:normal;font-style:normal;font-size:10pt">250.00</text>
<text x="710.98" y="-19.502" transform="scale(1, -1)"
	style="font-family:Times;font-weight:normal;font-style:normal;font-size:10pt">1000.00</text>
<text x="1226.6" y="-19.502" transform="scale(1, -1)"
	style="font-family:Times;font-weight:normal;font-style:normal;font-size:10pt">1750.00</text>
<path d="M215.7,31.538L215.7,41.538" style="fill:none;stroke:#000000;stroke-width:0.625" />
<path d="M731.29,31.538L731.29,41.538" style="fill:none;stroke:#000000;stroke-width:0.625" />
<path d="M1246.9,31.538L1246.9,41.538" style="fill:none;stroke:#000000;stroke-width:0.625" />
<path d="M473.5,36.538L473.5,41.538" style="fill:none;stroke:#000000;stroke-width:0.625" />
<path d="M989.09,36.538L989.09,41.538" style="fill:none;stroke:#000000;stroke-width:0.625" />
<path d="M120.83,41.538L1350,41.538" style="fill:none;stroke:#000000;stroke-width:0.625" />
<g transform="rotate(90)">
<text x="679.15" y="14.443" transform="scale(1, -1)"
	style="font-family:Times;font-weight:normal;font-style:normal;font-size:12pt">Debt</text>
</g>
<text x="44.27" y="-73.751" transform="scale(1, -1)"
	style="font-family:Times;font-weight:normal;font-style:normal;font-size:10pt">0</text>
<text x="19.27" y="-449.72" transform="scale(1, -1)"
	style="font-family:Times;font-weight:normal;font-style:normal;font-size:10pt">30000</text>
<text x="19.27" y="-825.68" transform="scale(1, -1)"
	style="font-family:Times;font-weight:normal;font-style:normal;font-size:10pt">60000</text>
<text x="19.27" y="-1201.6" transform="scale(1, -1)"
	style="font-family:Times;font-weight:normal;font-style:normal;font-size:10pt">90000</text>
<path d="M53.645,79.653L63.645,79.653" style="fill:none;stroke:#000000;stroke-width:0.625" />
<path d="M53.645,455.62L63.645,455.62" style="fill:none;stroke:#000000;stroke-width:0.625" />
<path d="M53.645,831.58L63.645,831.58" style="fill:none;stroke:#000000;stroke-width:0.625" />
<path d="M53.645,1207.5L63.645,1207.5" style="fill:none;stroke:#000000;stroke-width:0.625" />
<path d="M58.645,204.97L63.645,204.97" style="fill:none;stroke:#000000;stroke-width:0.625" />
<path d="M58.645,330.3L63.645,330.3" style="fill:none;stroke:#000000;stroke-width:0.625" />
<path d="M58.645,580.94L63.645,580.94" style="fill:none;stroke:#000000;stroke-width:0.625" />
<path d="M58.645,706.26L63.645,706.26" style="fill:none;stroke:#000000;stroke-width:0.625" />
<path d="M58.645,956.91L63.645,956.91" style="fill:none;stroke:#000000;stroke-width:0.625" />
<path d="M58.645,1082.2L63.645,1082.2" style="fill:none;stroke:#000000;stroke-width:0.625" />
<path d="M63.645,79.653L63.645,1307.8" style="fill:none;stroke:#000000;stroke-width:0.625" />
<path d="M1350,490.32A0,0 0 1 1 1350,490.32A0,0 0 1 1 1350,490.32Z" style="fill:#2E94E7" />
<path d="M1284,426.71A7.1054e-15,7.1054e-15 0 1 1 1284,426.71A7.1054e-15,7.1054e-15 0 1 1 1284,426.71Z" style="fill:#AE04E8" />
<path d="M1250.3,606.57A7.1054e-15,7.1054e-15 0 1 1 1250.3,606.57A7.1054e-15,7.1054e-15 0 1 1 1250.3,606.57Z" style="fill:#DA44E8" />
<path d="M1277.1,381.8A7.1054e-15,7.1054e-15 0 1 1 1277.1,381.8A7.1054e-15,7.1054e-15 0 1 1 1277.1,381.8Z" style="fill:#E618E8" />
<path d="M1238.1,422.28A0.84363,0.84363 0 1 1 1236.4,422.28A0.84363,0.84363 0 1 1 1238.1,422.28Z" style="fill:#5E70F8" />
<path d="M1229.5,499.89L1229.5,499.89A1.1779,1.1779 0 1 1 1227.1,499.89A1.1779,1.1779 0 1 1 1229.5,499.89Z" style="fill:#5A44FF" />
<path d="M1223.5,536.19L1223.5,536.19A1.3832,1.3832 0 1 1 1220.8,536.19A1.3832,1.3832 0 1 1 1223.5,536.19Z" style="fill:#A68403" />
<path d="M765.03,249.35A2.1114,2.1114 0 1 1 760.8,249.35A2.1114,2.1114 0 1 1 765.03,249.35Z" style="fill:#766412" />
<path d="M1203.7,644.45A2.1429,2.1429 0 1 1 1199.4,644.45A2.1429,2.1429 0 1 1 1203.7,644.45Z" style="fill:#4E7012" />
<path d="M1201.2,552.88L1201.2,552.88A2.4182,2.4182 0 1 1 1196.3,552.88A2.4182,2.4182 0 1 1 1201.2,552.88Z" style="fill:#FE9418" />
<path d="M1296.8,701.6A3.1241,3.1241 0 1 1 1290.5,701.6A3.1241,3.1241 0 1 1 1296.8,701.6Z" style="fill:#C6B026" />
<path d="M1175.3,665.85A3.3538,3.3538 0 1 1 1168.6,665.85A3.3538,3.3538 0 1 1 1175.3,665.85Z" style="fill:#F2CC2B" />
<path d="M1169.4,573.11A3.6308,3.6308 0 1 1 1162.1,573.11A3.6308,3.6308 0 1 1 1169.4,573.11Z" style="fill:#3EAC30" />
<path d="M1163.5,604.12L1163.5,604.12A3.9077,3.9077 0 1 1 1155.7,604.12A3.9077,3.9077 0 1 1 1163.5,604.12Z" style="fill:#8A0836" />
<path d="M885.53,297.66A4.3761,4.3761 0 1 1 876.78,297.66A4.3761,4.3761 0 1 1 885.53,297.66Z" style="fill:#E6903F" />
<path d="M1145.8,547.34A4.7385,4.7385 0 1 1 1136.3,547.34A4.7385,4.7385 0 1 1 1145.8,547.34Z" style="fill:#6E0C46" />
<path d="M1143.8,597.55A4.8308,4.8308 0 1 1 1134.1,597.55A4.8308,4.8308 0 1 1 1143.8,597.55Z" style="fill:#320448" />
<path d="M848.89,306.64L848.89,306.64A4.8511,4.8511 0 1 1 839.18,306.64A4.8511,4.8511 0 1 1 848.89,306.64Z" style="fill:#AE8049" />
<path d="M1139.2,568.4A5.0462,5.0462 0 1 1 1129.1,568.4A5.0462,5.0462 0 1 1 1139.2,568.4Z" style="fill:#A64C4C" />
<path d="M1116.2,728.14A6.1231,6.1231 0 1 1 1104,728.14A6.1231,6.1231 0 1 1 1116.2,728.14Z" style="fill:#EA2862" />
<path d="M1114.2,753.43L1114.2,753.43A6.2154,6.2154 0 1 1 1101.8,753.43A6.2154,6.2154 0 1 1 1114.2,753.43Z" style="fill:#AED064" />
<path d="M686.25,79.653A6.5217,6.5217 0 1 1 673.21,79.653A6.5217,6.5217 0 1 1 686.25,79.653Z" style="fill:#02806A" />
<path d="M894.11,340.96A6.7661,6.7661 0 1 1 880.58,340.96A6.7661,6.7661 0 1 1 894.11,340.96Z" style="fill:#9A7C6F" />
<path d="M1262.7,772.54L1262.7,772.54A6.8593,6.8593 0 1 1 1249,772.54A6.8593,6.8593 0 1 1 1262.7,772.54Z" style="fill:#7AF471" />
<path d="M1162.5,775.74A7.0293,7.0293 0 1 1 1148.4,775.74A7.0293,7.0293 0 1 1 1162.5,775.74Z" style="fill:#12E074" />
<path d="M1103.6,348.84A7.2292,7.2292 0 1 1 1089.1,348.84A7.2292,7.2292 0 1 1 1103.6,348.84Z" style="fill:#5AA078" />
<path d="M1181.5,797.85A8.2053,8.2053 0 1 1 1165.1,797.85A8.2053,8.2053 0 1 1 1181.5,797.85Z" style="fill:#1AB08C" />
<path d="M1065.6,788.15L1065.6,788.15A8.4923,8.4923 0 1 1 1048.7,788.15A8.4923,8.4923 0 1 1 1065.6,788.15Z" style="fill:#E63891" />
<path d="M1023.1,394.62L1023.1,394.62A10,10 0 1 1 1003.1,394.62A10,10 0 1 1 1023.1,394.62Z" style="fill:#E604B0" />
<path d="M1032.1,426.44L1032.1,426.44A10.015,10.015 0 1 1 1012.1,426.44A10.015,10.015 0 1 1 1032.1,426.44Z" style="fill:#EA60B0" />
<path d="M762.12,396.04A10.206,10.206 0 1 1 741.71,396.04A10.206,10.206 0 1 1 762.12,396.04Z" style="fill:#36D8B4" />
<path d="M1021,666.63L1021,666.63A10.585,10.585 0 1 1 999.81,666.63A10.585,10.585 0 1 1 1021,666.63Z" style="fill:#96B8BB" />
<path d="M864.82,409.99A11.159,11.159 0 1 1 842.5,409.99A11.159,11.159 0 1 1 864.82,409.99Z" style="fill:#C6CCC7" />
<path d="M1007.2,852.4A11.231,11.231 0 1 1 984.73,852.4A11.231,11.231 0 1 1 1007.2,852.4Z" style="fill:#F2C4C8" />
<path d="M986.37,848.29L986.37,848.29A11.717,11.717 0 1 1 962.93,848.29A11.717,11.717 0 1 1 986.37,848.29Z" style="fill:#8624D2" />
<path d="M996.69,716.02A11.723,11.723 0 1 1 973.24,716.02A11.723,11.723 0 1 1 996.69,716.02Z" style="fill:#B29CD2" />
<path d="M985.74,849.96A11.776,11.776 0 1 1 962.19,849.96A11.776,11.776 0 1 1 985.74,849.96Z" style="fill:#7288D3" />
<path d="M918.46,420.1L918.46,420.1A11.873,11.873 0 1 1 894.72,420.1A11.873,11.873 0 1 1 918.46,420.1Z" style="fill:#CAD8D5" />
<path d="M985.52,779.71L985.52,779.71A12.246,12.246 0 1 1 961.03,779.71A12.246,12.246 0 1 1 985.52,779.71Z" style="fill:#5EA4DC" />
<path d="M974.56,857.83A12.288,12.288 0 1 1 949.99,857.83A12.288,12.288 0 1 1 974.56,857.83Z" style="fill:#1E98DD" />
<path d="M709.59,377.79A12.671,12.671 0 1 1 684.25,377.79A12.671,12.671 0 1 1 709.59,377.79Z" style="fill:#F618E5" />
<path d="M869.78,431.32L869.78,431.32A12.688,12.688 0 1 1 844.41,431.32A12.688,12.688 0 1 1 869.78,431.32Z" style="fill:#2AC4E5" />
<path d="M963.85,595.99A13.262,13.262 0 1 1 937.33,595.99A13.262,13.262 0 1 1 963.85,595.99Z" style="fill:#CA54F1" />
<path d="M938.49,453.79A13.333,13.333 0 1 1 911.82,453.79A13.333,13.333 0 1 1 938.49,453.79Z" style="fill:#E6D8F2" />
<path d="M955.31,743.02L955.31,743.02A13.662,13.662 0 1 1 927.99,743.02A13.662,13.662 0 1 1 955.31,743.02Z" style="fill:#C6E4F9" />
<path d="M762.95,454.67L762.95,454.67A14.47,14.47 0 1 1 734.01,454.67A14.47,14.47 0 1 1 762.95,454.67Z" style="fill:#D25009" />
<path d="M927.08,655.96L927.08,655.96A14.985,14.985 0 1 1 897.11,655.96A14.985,14.985 0 1 1 927.08,655.96Z" style="fill:#6A2813" />
<path d="M974.6,941.8A15.076,15.076 0 1 1 944.45,941.8A15.076,15.076 0 1 1 974.6,941.8Z" style="fill:#CE1C15" />
<path d="M673.77,365.84A15.35,15.35 0 1 1 643.07,365.84A15.35,15.35 0 1 1 673.77,365.84Z" style="fill:#96901A" />
<path d="M919.2,691.2A15.354,15.354 0 1 1 888.49,691.2A15.354,15.354 0 1 1 919.2,691.2Z" style="fill:#7AD81B" />
<path d="M970.61,957.02L970.61,957.02A15.894,15.894 0 1 1 938.82,957.02A15.894,15.894 0 1 1 970.61,957.02Z" style="fill:#42F425" />
<path d="M620.99,306.77L620.99,306.77A16.192,16.192 0 1 1 588.61,306.77A16.192,16.192 0 1 1 620.99,306.77Z" style="fill:#7E5C2B" />
<path d="M891.38,927.14A16.407,16.407 0 1 1 858.56,927.14A16.407,16.407 0 1 1 891.38,927.14Z" style="fill:#32B430" />
<path d="M974.23,973.3A16.765,16.765 0 1 1 940.7,973.3A16.765,16.765 0 1 1 974.23,973.3Z" style="fill:#927037" />
<path d="M606.33,221.29A17.346,17.346 0 1 1 571.64,221.29A17.346,17.346 0 1 1 606.33,221.29Z" style="fill:#B27842" />
<path d="M858.52,933.34A17.921,17.921 0 1 1 822.68,933.34A17.921,17.921 0 1 1 858.52,933.34Z" style="fill:#4A604E" />
<path d="M1117.1,1002.5A18.711,18.711 0 1 1 1079.7,1002.5A18.711,18.711 0 1 1 1117.1,1002.5Z" style="fill:#96B45E" />
<path d="M654.14,408.82L654.14,408.82A19.783,19.783 0 1 1 614.58,408.82A19.783,19.783 0 1 1 654.14,408.82Z" style="fill:#DA8873" />
<path d="M988.46,1036.4A20,20 0 1 1 948.46,1036.4A20,20 0 1 1 988.46,1036.4Z" style="fill:#D2CC78" />
<path d="M1049,1057.5A20,20 0 1 1 1009,1057.5A20,20 0 1 1 1049,1057.5Z" style="fill:#B27078" />
<path d="M900.47,1119.7A20,20 0 1 1 860.47,1119.7A20,20 0 1 1 900.47,1119.7Z" style="fill:#D22C78" />
<path d="M938.97,1091A20,20 0 1 1 898.97,1091A20,20 0 1 1 938.97,1091Z" style="fill:#324478" />
<path d="M860.6,1180.9A20,20 0 1 1 820.6,1180.9A20,20 0 1 1 860.6,1180.9Z" style="fill:#4A6C78" />
<path d="M583.87,227.08A20.318,20.318 0 1 1 543.24,227.08A20.318,20.318 0 1 1 583.87,227.08Z" style="fill:#CE907E" />
<path d="M580.52,376.03L580.52,376.03A22.469,22.469 0 1 1 535.58,376.03A22.469,22.469 0 1 1 580.52,376.03Z" style="fill:#2E14A9" />
<path d="M717.09,1307.8L717.09,1307.8A22.924,22.924 0 1 1 671.24,1307.8A22.924,22.924 0 1 1 717.09,1307.8Z" style="fill:#A6C0B2" />
<path d="M581.14,398.86A23.772,23.772 0 1 1 533.59,398.86A23.772,23.772 0 1 1 581.14,398.86Z" style="fill:#1A6CC3" />
<path d="M702.69,548.13L702.69,548.13A24.331,24.331 0 1 1 654.03,548.13A24.331,24.331 0 1 1 702.69,548.13Z" style="fill:#DAF8CE" />
<path d="M694,628.17A24.576,24.576 0 1 1 644.84,628.17A24.576,24.576 0 1 1 694,628.17Z" style="fill:#D6F4D3" />
<path d="M689.19,932.1L689.19,932.1A25.265,25.265 0 1 1 638.66,932.1A25.265,25.265 0 1 1 689.19,932.1Z" style="fill:#36A4E1" />
<path d="M681.17,602.47A25.5,25.5 0 1 1 630.17,602.47A25.5,25.5 0 1 1 681.17,602.47Z" style="fill:#46B8E6" />
<path d="M543.41,105.12A25.917,25.917 0 1 1 491.58,105.12A25.917,25.917 0 1 1 543.41,105.12Z" style="fill:#9240EE" />
<path d="M674.8,1080.7L674.8,1080.7A26,26 0 1 1 622.8,1080.7A26,26 0 1 1 674.8,1080.7Z" style="fill:#7EF8F0" />
<path d="M506.65,330.82L506.65,330.82A28.34,28.34 0 1 1 449.97,330.82A28.34,28.34 0 1 1 506.65,330.82Z" style="fill:#1E481E" />
<path d="M639.74,571.37A28.75,28.75 0 1 1 582.24,571.37A28.75,28.75 0 1 1 639.74,571.37Z" style="fill:#32D027" />
<path d="M642.66,790.82L642.66,790.82A29.608,29.608 0 1 1 583.44,790.82A29.608,29.608 0 1 1 642.66,790.82Z" style="fill:#6EDC38" />
<path d="M627.63,946.78L627.63,946.78A29.7,29.7 0 1 1 568.23,946.78A29.7,29.7 0 1 1 627.63,946.78Z" style="fill:#B6203A" />
<path d="M635.82,862A30.328,30.328 0 1 1 575.16,862A30.328,30.328 0 1 1 635.82,862Z" style="fill:#929C46" />
<path d="M618.06,578.2L618.06,578.2A30.45,30.45 0 1 1 557.16,578.2A30.45,30.45 0 1 1 618.06,578.2Z" style="fill:#8A6448" />
<path d="M637.8,841.16A30.941,30.941 0 1 1 575.92,841.16A30.941,30.941 0 1 1 637.8,841.16Z" style="fill:#BAB052" />
<path d="M611.05,1057.8L611.05,1057.8A31,31 0 1 1 549.05,1057.8A31,31 0 1 1 611.05,1057.8Z" style="fill:#AE7854" />
<path d="M458.08,449.57A31.329,31.329 0 1 1 395.42,449.57A31.329,31.329 0 1 1 458.08,449.57Z" style="fill:#42845A" />
<path d="M601.49,531.2L601.49,531.2A31.75,31.75 0 1 1 537.99,531.2A31.75,31.75 0 1 1 601.49,531.2Z" style="fill:#826C63" />
<path d="M594.48,554.41A32.3,32.3 0 1 1 529.88,554.41A32.3,32.3 0 1 1 594.48,554.41Z" style="fill:#A61C6E" />
<path d="M417.34,428.21A34.593,34.593 0 1 1 348.16,428.21A34.593,34.593 0 1 1 417.34,428.21Z" style="fill:#42649B" />
<path d="M537.7,834.65A36.022,36.022 0 1 1 465.66,834.65A36.022,36.022 0 1 1 537.7,834.65Z" style="fill:#C624B8" />
<path d="M537.11,577.08A36.8,36.8 0 1 1 463.51,577.08A36.8,36.8 0 1 1 537.11,577.08Z" style="fill:#9E70C8" />
<path d="M537.11,872.01A36.8,36.8 0 1 1 463.51,872.01A36.8,36.8 0 1 1 537.11,872.01Z" style="fill:#9E08C8" />
<path d="M406.26,439.83A37.258,37.258 0 1 1 331.75,439.83A37.258,37.258 0 1 1 406.26,439.83Z" style="fill:#B2D0D1" />
<path d="M429.84,284.32A37.463,37.463 0 1 1 354.91,284.32A37.463,37.463 0 1 1 429.84,284.32Z" style="fill:#5A5CD5" />
<path d="M496.31,1093.1A40,40 0 1 1 416.31,1093.1A40,40 0 1 1 496.31,1093.1Z" style="fill:#9E0007" />
<path d="M495.67,650.69L495.67,650.69A40.05,40.05 0 1 1 415.57,650.69A40.05,40.05 0 1 1 495.67,650.69Z" style="fill:#8A5808" />
<path d="M488.66,524.29L488.66,524.29A40.6,40.6 0 1 1 407.46,524.29A40.6,40.6 0 1 1 488.66,524.29Z" style="fill:#AE6013" />
<path d="M442.76,626.81L442.76,626.81A44.2,44.2 0 1 1 354.36,626.81A44.2,44.2 0 1 1 442.76,626.81Z" style="fill:#0E705C" />
<path d="M442.13,603.13A44.25,44.25 0 1 1 353.63,603.13A44.25,44.25 0 1 1 442.13,603.13Z" style="fill:#FADC5D" />
<path d="M386.41,565.14A48.343,48.343 0 1 1 289.72,565.14A48.343,48.343 0 1 1 386.41,565.14Z" style="fill:#2EFCAE" />
<path d="M200.39,449.3L200.39,449.3A50,50 0 1 1 100.39,449.3A50,50 0 1 1 200.39,449.3Z" style="fill:#DAE0CF" />
<path d="M244.39,224.4A50,50 0 1 1 144.39,224.4A50,50 0 1 1 244.39,224.4Z" style="fill:#DAD8D0" />
<path d="M170.83,408.02A50,50 0 1 1 70.833,408.02A50,50 0 1 1 170.83,408.02Z" style="fill:#7E88D0" />
<path d="M202.46,98.101L202.46,98.101A50,50 0 1 1 102.46,98.101A50,50 0 1 1 202.46,98.101Z" style="fill:#1680D0" />
<text x="1070.5" y="-48.379" transform="scale(1, -1)"
	style="font-family:Times;font-weight:normal;font-style:normal;font-size:12pt">The bigger the circle, the bigger the value</text>
</g>
</svg>
