<?xml version="1.0"?>
<!-- Generated by SVGo and Plotinum VG -->
<svg width="5in" height="5in"
	xmlns="http://www.w3.org/2000/svg"
	xmlns:xlink="http://www.w3.org/1999/xlink">
<g transform="scale(1, -1) translate(0, -450)">
<path d="M0,0L450,0L450,450L0,450Z" style="fill:#FFFFFF" />
<text x="128.35" y="-435.56" transform="scale(1, -1)"
	style="font-family:Times;font-weight:normal;font-style:normal;font-size:12pt">Income Memberships Functions</text>
<text x="223.86" y="-4.8267" transform="scale(1, -1)"
	style="font-family:Times;font-weight:normal;font-style:normal;font-size:12pt">Income</text>
<text x="52.083" y="-19.502" transform="scale(1, -1)"
	style="font-family:Times;font-weight:normal;font-style:normal;font-size:10pt">0</text>
<text x="233.85" y="-19.502" transform="scale(1, -1)"
	style="font-family:Times;font-weight:normal;font-style:normal;font-size:10pt">1000</text>
<text x="425" y="-19.502" transform="scale(1, -1)"
	style="font-family:Times;font-weight:normal;font-style:normal;font-size:10pt">2000</text>
<path d="M55.208,31.538L55.208,41.538" style="fill:none;stroke:#000000;stroke-width:0.625" />
<path d="M246.35,31.538L246.35,41.538" style="fill:none;stroke:#000000;stroke-width:0.625" />
<path d="M437.5,31.538L437.5,41.538" style="fill:none;stroke:#000000;stroke-width:0.625" />
<path d="M93.437,36.538L93.437,41.538" style="fill:none;stroke:#000000;stroke-width:0.625" />
<path d="M131.67,36.538L131.67,41.538" style="fill:none;stroke:#000000;stroke-width:0.625" />
<path d="M169.9,36.538L169.9,41.538" style="fill:none;stroke:#000000;stroke-width:0.625" />
<path d="M208.12,36.538L208.12,41.538" style="fill:none;stroke:#000000;stroke-width:0.625" />
<path d="M284.58,36.538L284.58,41.538" style="fill:none;stroke:#000000;stroke-width:0.625" />
<path d="M322.81,36.538L322.81,41.538" style="fill:none;stroke:#000000;stroke-width:0.625" />
<path d="M361.04,36.538L361.04,41.538" style="fill:none;stroke:#000000;stroke-width:0.625" />
<path d="M399.27,36.538L399.27,41.538" style="fill:none;stroke:#000000;stroke-width:0.625" />
<path d="M55.208,41.538L437.5,41.538" style="fill:none;stroke:#000000;stroke-width:0.625" />
<g transform="rotate(90)">
<text x="221.77" y="14.443" transform="scale(1, -1)"
	style="font-family:Times;font-weight:normal;font-style:normal;font-size:12pt">Fuzz</text>
</g>
<text x="19.27" y="-42.198" transform="scale(1, -1)"
	style="font-family:Times;font-weight:normal;font-style:normal;font-size:10pt">0.0</text>
<text x="19.27" y="-230.45" transform="scale(1, -1)"
	style="font-family:Times;font-weight:normal;font-style:normal;font-size:10pt">0.5</text>
<text x="19.27" y="-418.69" transform="scale(1, -1)"
	style="font-family:Times;font-weight:normal;font-style:normal;font-size:10pt">1.0</text>
<path d="M38.02,48.101L48.02,48.101" style="fill:none;stroke:#000000;stroke-width:0.625" />
<path d="M38.02,236.35L48.02,236.35" style="fill:none;stroke:#000000;stroke-width:0.625" />
<path d="M38.02,424.6L48.02,424.6" style="fill:none;stroke:#000000;stroke-width:0.625" />
<path d="M43.02,85.75L48.02,85.75" style="fill:none;stroke:#000000;stroke-width:0.625" />
<path d="M43.02,123.4L48.02,123.4" style="fill:none;stroke:#000000;stroke-width:0.625" />
<path d="M43.02,161.05L48.02,161.05" style="fill:none;stroke:#000000;stroke-width:0.625" />
<path d="M43.02,198.7L48.02,198.7" style="fill:none;stroke:#000000;stroke-width:0.625" />
<path d="M43.02,274L48.02,274" style="fill:none;stroke:#000000;stroke-width:0.625" />
<path d="M43.02,311.65L48.02,311.65" style="fill:none;stroke:#000000;stroke-width:0.625" />
<path d="M43.02,349.3L48.02,349.3" style="fill:none;stroke:#000000;stroke-width:0.625" />
<path d="M43.02,386.95L48.02,386.95" style="fill:none;stroke:#000000;stroke-width:0.625" />
<path d="M48.02,48.101L48.02,424.6" style="fill:none;stroke:#000000;stroke-width:0.625" />
<path d="M55.208,424.6L63.009,424.6L70.811,424.6L78.613,424.6L86.415,424.6L94.217,424.6L102.02,424.6L109.82,424.6L117.62,424.6L125.42,424.6L133.23,424.6L141.03,424.6L148.83,424.6L156.63,401.55L164.43,370.81L172.24,340.08L180.04,309.34L187.84,278.61L195.64,247.87L203.44,217.14L211.25,186.41L219.05,155.67L226.85,124.94L234.65,94.202L242.45,63.468L250.25,48.101L258.06,48.101L265.86,48.101L273.66,48.101L281.46,48.101L289.26,48.101L297.07,48.101L304.87,48.101L312.67,48.101L320.47,48.101L328.27,48.101L336.08,48.101L343.88,48.101L351.68,48.101L359.48,48.101L367.28,48.101L375.08,48.101L382.89,48.101L390.69,48.101L398.49,48.101L406.29,48.101L414.09,48.101L421.9,48.101L429.7,48.101L437.5,48.101" style="fill:none;stroke:#FF0000;stroke-width:1.25" />
<path d="M55.208,48.101L63.009,48.101L70.811,48.101L78.613,48.101L86.415,48.101L94.217,48.101L102.02,48.101L109.82,48.101L117.62,48.101L125.42,48.101L133.23,54.247L141.03,84.982L148.83,115.72L156.63,146.45L164.43,177.18L172.24,207.92L180.04,238.65L187.84,269.39L195.64,300.12L203.44,330.86L211.25,361.59L219.05,392.32L226.85,423.06L234.65,424.6L242.45,424.6L250.25,424.6L258.06,424.6L265.86,424.6L273.66,424.6L281.46,424.6L289.26,407.83L297.07,379.89L304.87,351.95L312.67,324.01L320.47,296.07L328.27,268.13L336.08,240.19L343.88,212.25L351.68,184.31L359.48,156.37L367.28,128.43L375.08,100.49L382.89,72.548L390.69,48.101L398.49,48.101L406.29,48.101L414.09,48.101L421.9,48.101L429.7,48.101L437.5,48.101" style="fill:none;stroke:#00FF00;stroke-width:1.25" />
<path d="M55.208,48.101L63.009,48.101L70.811,48.101L78.613,48.101L86.415,48.101L94.217,48.101L102.02,48.101L109.82,48.101L117.62,48.101L125.42,48.101L133.23,48.101L141.03,48.101L148.83,48.101L156.63,48.101L164.43,48.101L172.24,48.101L180.04,48.101L187.84,48.101L195.64,48.101L203.44,48.101L211.25,48.101L219.05,48.101L226.85,48.101L234.65,48.101L242.45,48.101L250.25,48.101L258.06,48.101L265.86,49.498L273.66,77.438L281.46,105.38L289.26,133.32L297.07,161.26L304.87,189.2L312.67,217.14L320.47,245.08L328.27,273.02L336.08,300.96L343.88,328.9L351.68,356.84L359.48,384.78L367.28,412.72L375.08,424.6L382.89,424.6L390.69,424.6L398.49,424.6L406.29,424.6L414.09,424.6L421.9,424.6L429.7,424.6L437.5,424.6" style="fill:none;stroke:#0000FF;stroke-width:1.25" />
</g>
</svg>
