<?xml version="1.0"?>
<!-- Generated by SVGo and Plotinum VG -->
<svg width="5in" height="5in"
	xmlns="http://www.w3.org/2000/svg"
	xmlns:xlink="http://www.w3.org/1999/xlink">
<g transform="scale(1, -1) translate(0, -450)">
<path d="M0,0L450,0L450,450L0,450Z" style="fill:#FFFFFF" />
<text x="139.17" y="-435.56" transform="scale(1, -1)"
	style="font-family:Times;font-weight:normal;font-style:normal;font-size:12pt">Debt Membership Functions</text>
<text x="228.65" y="-4.8267" transform="scale(1, -1)"
	style="font-family:Times;font-weight:normal;font-style:normal;font-size:12pt">Debt</text>
<text x="52.083" y="-19.502" transform="scale(1, -1)"
	style="font-family:Times;font-weight:normal;font-style:normal;font-size:10pt">0</text>
<text x="227.6" y="-19.502" transform="scale(1, -1)"
	style="font-family:Times;font-weight:normal;font-style:normal;font-size:10pt">50000</text>
<text x="412.5" y="-19.502" transform="scale(1, -1)"
	style="font-family:Times;font-weight:normal;font-style:normal;font-size:10pt">100000</text>
<path d="M55.208,31.538L55.208,41.538" style="fill:none;stroke:#000000;stroke-width:0.625" />
<path d="M243.23,31.538L243.23,41.538" style="fill:none;stroke:#000000;stroke-width:0.625" />
<path d="M431.25,31.538L431.25,41.538" style="fill:none;stroke:#000000;stroke-width:0.625" />
<path d="M92.812,36.538L92.812,41.538" style="fill:none;stroke:#000000;stroke-width:0.625" />
<path d="M130.42,36.538L130.42,41.538" style="fill:none;stroke:#000000;stroke-width:0.625" />
<path d="M168.02,36.538L168.02,41.538" style="fill:none;stroke:#000000;stroke-width:0.625" />
<path d="M205.62,36.538L205.62,41.538" style="fill:none;stroke:#000000;stroke-width:0.625" />
<path d="M280.83,36.538L280.83,41.538" style="fill:none;stroke:#000000;stroke-width:0.625" />
<path d="M318.44,36.538L318.44,41.538" style="fill:none;stroke:#000000;stroke-width:0.625" />
<path d="M356.04,36.538L356.04,41.538" style="fill:none;stroke:#000000;stroke-width:0.625" />
<path d="M393.65,36.538L393.65,41.538" style="fill:none;stroke:#000000;stroke-width:0.625" />
<path d="M55.208,41.538L431.25,41.538" style="fill:none;stroke:#000000;stroke-width:0.625" />
<g transform="rotate(90)">
<text x="221.77" y="14.443" transform="scale(1, -1)"
	style="font-family:Times;font-weight:normal;font-style:normal;font-size:12pt">Fuzz</text>
</g>
<text x="19.27" y="-42.198" transform="scale(1, -1)"
	style="font-family:Times;font-weight:normal;font-style:normal;font-size:10pt">0.0</text>
<text x="19.27" y="-230.45" transform="scale(1, -1)"
	style="font-family:Times;font-weight:normal;font-style:normal;font-size:10pt">0.5</text>
<text x="19.27" y="-418.69" transform="scale(1, -1)"
	style="font-family:Times;font-weight:normal;font-style:normal;font-size:10pt">1.0</text>
<path d="M38.02,48.101L48.02,48.101" style="fill:none;stroke:#000000;stroke-width:0.625" />
<path d="M38.02,236.35L48.02,236.35" style="fill:none;stroke:#000000;stroke-width:0.625" />
<path d="M38.02,424.6L48.02,424.6" style="fill:none;stroke:#000000;stroke-width:0.625" />
<path d="M43.02,85.75L48.02,85.75" style="fill:none;stroke:#000000;stroke-width:0.625" />
<path d="M43.02,123.4L48.02,123.4" style="fill:none;stroke:#000000;stroke-width:0.625" />
<path d="M43.02,161.05L48.02,161.05" style="fill:none;stroke:#000000;stroke-width:0.625" />
<path d="M43.02,198.7L48.02,198.7" style="fill:none;stroke:#000000;stroke-width:0.625" />
<path d="M43.02,274L48.02,274" style="fill:none;stroke:#000000;stroke-width:0.625" />
<path d="M43.02,311.65L48.02,311.65" style="fill:none;stroke:#000000;stroke-width:0.625" />
<path d="M43.02,349.3L48.02,349.3" style="fill:none;stroke:#000000;stroke-width:0.625" />
<path d="M43.02,386.95L48.02,386.95" style="fill:none;stroke:#000000;stroke-width:0.625" />
<path d="M48.02,48.101L48.02,424.6" style="fill:none;stroke:#000000;stroke-width:0.625" />
<path d="M55.208,424.6L62.882,424.6L70.556,424.6L78.231,424.6L85.905,424.6L93.579,424.6L101.25,424.6L108.93,424.6L116.6,399.62L124.28,361.21L131.95,322.79L139.63,284.37L147.3,245.95L154.97,207.53L162.65,169.12L170.32,130.7L178,92.281L185.67,53.863L193.35,48.101L201.02,48.101L208.69,48.101L216.37,48.101L224.04,48.101L231.72,48.101L239.39,48.101L247.07,48.101L254.74,48.101L262.41,48.101L270.09,48.101L277.76,48.101L285.44,48.101L293.11,48.101L300.79,48.101L308.46,48.101L316.13,48.101L323.81,48.101L331.48,48.101L339.16,48.101L346.83,48.101L354.51,48.101L362.18,48.101L369.86,48.101L377.53,48.101L385.2,48.101L392.88,48.101L400.55,48.101L408.23,48.101L415.9,48.101L423.58,48.101L431.25,48.101" style="fill:none;stroke:#FF0000;stroke-width:1.25" />
<path d="M55.208,48.101L62.882,48.101L70.556,48.101L78.231,48.101L85.905,48.101L93.579,50.662L101.25,76.274L108.93,101.89L116.6,127.5L124.28,153.11L131.95,178.72L139.63,204.33L147.3,229.95L154.97,255.56L162.65,281.17L170.32,306.78L178,332.39L185.67,358L193.35,383.62L201.02,409.23L208.69,424.6L216.37,424.6L224.04,424.6L231.72,424.6L239.39,424.6L247.07,409.23L254.74,378.49L262.41,347.76L270.09,317.03L277.76,286.29L285.44,255.56L293.11,224.82L300.79,194.09L308.46,163.35L316.13,132.62L323.81,101.89L331.48,71.151L339.16,48.101L346.83,48.101L354.51,48.101L362.18,48.101L369.86,48.101L377.53,48.101L385.2,48.101L392.88,48.101L400.55,48.101L408.23,48.101L415.9,48.101L423.58,48.101L431.25,48.101" style="fill:none;stroke:#00FF00;stroke-width:1.25" />
<path d="M55.208,48.101L62.882,48.101L70.556,48.101L78.231,48.101L85.905,48.101L93.579,48.101L101.25,48.101L108.93,48.101L116.6,48.101L124.28,48.101L131.95,48.101L139.63,48.101L147.3,48.101L154.97,48.101L162.65,48.101L170.32,48.101L178,48.101L185.67,48.101L193.35,48.101L201.02,48.101L208.69,48.101L216.37,48.101L224.04,48.101L231.72,77.298L239.39,108.03L247.07,138.77L254.74,169.5L262.41,200.24L270.09,230.97L277.76,261.7L285.44,292.44L293.11,323.17L300.79,353.91L308.46,384.64L316.13,415.38L323.81,424.6L331.48,424.6L339.16,424.6L346.83,424.6L354.51,424.6L362.18,424.6L369.86,424.6L377.53,424.6L385.2,424.6L392.88,424.6L400.55,424.6L408.23,424.6L415.9,424.6L423.58,424.6L431.25,424.6" style="fill:none;stroke:#0000FF;stroke-width:1.25" />
</g>
</svg>
